HIERARCHY
ROOT Hips
{
	OFFSET 0.000000 0.000000 0.000000
	CHANNELS 6 Xposition Yposition Zposition Zrotation Yrotation Xrotation 
	JOINT LHipJoint
	{
		OFFSET 0.000000 0.000000 0.000000
		CHANNELS 3 Zrotation Yrotation Xrotation
		JOINT LeftUpLeg
		{
			OFFSET 1.363060 -1.794630 0.839290
			CHANNELS 3 Zrotation Yrotation Xrotation
			JOINT LeftLeg
			{
				OFFSET 2.448110 -6.726130 0.000000
				CHANNELS 3 Zrotation Yrotation Xrotation
				JOINT LeftFoot
				{
					OFFSET 2.562200 -7.039590 0.000000
					CHANNELS 3 Zrotation Yrotation Xrotation
					JOINT LeftToeBase
					{
						OFFSET 0.157640 -0.433110 2.322550
						CHANNELS 3 Zrotation Yrotation Xrotation
						End Site
						{
							OFFSET 0.000000 0.000000 0.000000
						}
					}
				}
			}
		}
	}
	JOINT RHipJoint
	{
		OFFSET 0.000000 0.000000 0.000000
		CHANNELS 3 Zrotation Yrotation Xrotation
		JOINT RightUpLeg
		{
			OFFSET -1.305520 -1.794630 0.839290
			CHANNELS 3 Zrotation Yrotation Xrotation
			JOINT RightLeg
			{
				OFFSET -2.542530 -6.985550 0.000000
				CHANNELS 3 Zrotation Yrotation Xrotation
				JOINT RightFoot
				{
					OFFSET -2.568260 -7.056230 0.000000
					CHANNELS 3 Zrotation Yrotation Xrotation
					JOINT RightToeBase
					{
						OFFSET -0.164730 -0.452590 2.363150
						CHANNELS 3 Zrotation Yrotation Xrotation
						End Site
						{
							OFFSET 0.000000 0.000000 0.000000
						}
					}
				}
			}
		}
	}
	JOINT LowerBack
	{
		OFFSET 0.000000 0.000000 0.000000
		CHANNELS 3 Zrotation Yrotation Xrotation
		JOINT Spine
		{
			OFFSET 0.028270 2.035590 -0.193380
			CHANNELS 3 Zrotation Yrotation Xrotation
			JOINT Spine1
			{
				OFFSET 0.056720 2.048850 -0.042750
				CHANNELS 3 Zrotation Yrotation Xrotation
				JOINT Neck
				{
					OFFSET 0.000000 0.000000 0.000000
					CHANNELS 3 Zrotation Yrotation Xrotation
					JOINT Neck1
					{
						OFFSET -0.054170 1.746240 0.172020
						CHANNELS 3 Zrotation Yrotation Xrotation
						JOINT Head
						{
							OFFSET 0.104070 1.761360 -0.123970
							CHANNELS 3 Zrotation Yrotation Xrotation
							End Site
							{
								OFFSET 0.000000 0.000000 0.000000
							}
						}
					}
				}
				JOINT LeftShoulder
				{
					OFFSET 0.000000 0.000000 0.000000
					CHANNELS 3 Zrotation Yrotation Xrotation
					JOINT LeftArm
					{
						OFFSET 3.362410 1.200890 -0.311210
						CHANNELS 3 Zrotation Yrotation Xrotation
						JOINT LeftForeArm
						{
							OFFSET 4.983000 -0.000000 -0.000000
							CHANNELS 3 Zrotation Yrotation Xrotation
							JOINT LeftHand
							{
								OFFSET 3.483560 -0.000000 -0.000000
								CHANNELS 3 Zrotation Yrotation Xrotation
								JOINT LeftFingerBase
								{
									OFFSET 0.000000 0.000000 0.000000
									CHANNELS 3 Zrotation Yrotation Xrotation
									JOINT LeftHandIndex1
									{
										OFFSET 0.715260 -0.000000 -0.000000
										CHANNELS 3 Zrotation Yrotation Xrotation
										End Site
										{
											OFFSET 0.000000 0.000000 0.000000
										}
									}
								}
								JOINT LThumb
								{
									OFFSET 0.000000 0.000000 0.000000
									CHANNELS 3 Zrotation Yrotation Xrotation
									End Site
									{
										OFFSET 0.000000 0.000000 0.000000
									}
								}
							}
						}
					}
				}
				JOINT RightShoulder
				{
					OFFSET 0.000000 0.000000 0.000000
					CHANNELS 3 Zrotation Yrotation Xrotation
					JOINT RightArm
					{
						OFFSET -3.136600 1.374050 -0.404650
						CHANNELS 3 Zrotation Yrotation Xrotation
						JOINT RightForeArm
						{
							OFFSET -5.241900 -0.000000 -0.000000
							CHANNELS 3 Zrotation Yrotation Xrotation
							JOINT RightHand
							{
								OFFSET -3.444170 -0.000000 -0.000000
								CHANNELS 3 Zrotation Yrotation Xrotation
								JOINT RightFingerBase
								{
									OFFSET 0.000000 0.000000 0.000000
									CHANNELS 3 Zrotation Yrotation Xrotation
									JOINT RightHandIndex1
									{
										OFFSET -0.622530 -0.000000 -0.000000
										CHANNELS 3 Zrotation Yrotation Xrotation
										End Site
										{
											OFFSET 0.000000 0.000000 0.000000
										}
									}
								}
								JOINT RThumb
								{
									OFFSET 0.000000 0.000000 0.000000
									CHANNELS 3 Zrotation Yrotation Xrotation
									End Site
									{
										OFFSET 0.000000 0.000000 0.000000
									}
								}
							}
						}
					}
				}
			}
		}
	}
}
MOTION
Frames: 4
Frame Time: 0.008333
-0.651454 18.133395 6.800293 -5.798799 2.834292 2.181411 1.852348 2.615162 -0.203590 -9.398347 -7.994079 -2.987925 1.637136 8.747187 27.036114 0.486150 2.279197 -14.274655 8.819400 -16.690100 -55.463300 -3.554048 -3.387877 -1.450300 22.608576 -2.495982 12.541737 0.442346 0.697767 1.674140 -0.268071 -4.052940 -16.382943 -0.504200 4.551900 -12.634700 5.146601 0.886732 14.383247 -1.658532 1.642557 -19.189238 -1.451670 1.418300 -11.643071 -3.390976 -4.042539 -24.293352 5.021719 -5.969610 47.912851 1.069100 -1.894200 14.349500 0.693514 -9.263933 4.037553 -20.971018 15.342804 -37.447339 59.075482 -57.330905 -27.990471 0.002712 1.305575 -42.056467 1.768688 -24.767840 -0.389000 -7.125000 0.000000 0.000000 -17.338400 5.182300 16.492200 -0.318127 11.510763 5.083253 21.042061 -36.112684 -42.222187 -68.475363 60.209166 -27.961962 2.523627 -0.394407 -18.678008 18.260879 -24.642105 -6.577200 7.125000 0.000000 0.000000 42.968500 -48.736600 -4.784600 
-0.649002 18.133886 6.800293 -5.813603 2.883834 2.197077 1.881966 2.612342 -0.220150 -9.420750 -8.006721 -3.002486 1.639339 8.749043 27.048680 0.484541 2.281868 -14.267465 8.822800 -16.692300 -55.475100 -3.523994 -3.386467 -1.454778 22.586017 -2.533532 12.517947 0.442084 0.695218 1.673364 -0.270048 -4.054152 -16.401922 -0.508900 4.572700 -12.693800 5.114567 0.889869 14.476381 -1.393716 1.703435 -19.299103 -1.567362 1.414675 -11.640436 -3.501943 -4.014591 -24.140584 5.174230 -5.964371 47.911202 1.134500 -1.873000 14.327300 0.675704 -9.239146 4.027689 -20.532566 15.228403 -37.726137 58.544694 -57.222657 -27.596866 -0.014233 1.311327 -41.499907 2.555946 -24.519808 -0.733400 -7.125000 0.000000 0.000000 -16.870600 5.336300 15.951900 -0.363485 11.505547 5.107273 20.756256 -35.737470 -42.755375 -67.519770 60.111503 -27.305691 2.556384 -0.522461 -18.121102 17.282811 -24.864031 -6.180000 7.125000 0.000000 0.000000 42.242900 -48.965900 -4.949000 
-0.647040 18.133984 6.800293 -5.843842 2.919770 2.204209 1.934337 2.614187 -0.232262 -9.434336 -7.924537 -3.048459 1.645654 8.746569 27.063585 0.490187 2.236572 -14.214785 8.849700 -16.710000 -55.568800 -3.468739 -3.387598 -1.443062 22.554796 -2.549416 12.492110 0.441328 0.691882 1.671993 -0.270952 -4.051521 -16.405274 -0.510300 4.579100 -12.711800 4.969548 0.921550 14.501181 -0.906772 1.825168 -19.294109 -1.708239 1.421783 -11.637977 -3.479794 -3.992645 -23.976528 5.072553 -5.905639 47.847962 1.113700 -1.866800 14.264100 0.614674 -9.200869 4.007315 -20.090594 14.935209 -38.195253 57.922803 -57.087835 -27.126266 -0.023719 1.312643 -41.189800 2.902702 -24.480098 -0.887200 -7.125000 0.000000 0.000000 -16.660100 5.335200 15.734300 -0.437281 11.502031 5.123536 20.346755 -35.371578 -43.241032 -66.669715 60.041058 -26.727204 2.587653 -0.651152 -17.466561 16.329974 -25.116033 -5.800300 7.125000 0.000000 0.000000 41.551500 -49.220800 -5.138200 
-0.646157 18.134180 6.800195 -5.902075 2.942335 2.220072 2.004212 2.613834 -0.256260 -9.434619 -7.852326 -3.090456 1.653266 8.745399 27.082641 0.503030 2.163590 -14.169670 8.869200 -16.722800 -55.636800 -3.397671 -3.386018 -1.437645 22.542938 -2.551311 12.468199 0.440253 0.687049 1.670131 -0.275877 -4.031085 -16.414670 -0.502300 4.543500 -12.611100 4.748959 0.959660 14.556311 -0.270607 1.977592 -19.391256 -1.865866 1.430500 -11.610528 -3.404854 -3.976840 -23.835942 4.827008 -5.816973 47.854634 1.048600 -1.869400 14.234200 0.535701 -9.156294 3.993365 -19.692956 14.570612 -38.718471 57.410932 -56.986306 -26.742746 -0.030323 1.313721 -40.708459 3.252144 -24.558873 -1.047000 -7.125000 0.000000 0.000000 -16.445100 5.219300 15.550000 -0.537171 11.503022 5.152582 19.862417 -34.946649 -43.679722 -65.931181 60.002639 -26.233846 2.615012 -0.774117 -16.622690 15.546326 -25.336811 -5.486100 7.125000 0.000000 0.000000 40.977800 -49.440400 -5.295300 
